<?xml version="1.0" encoding="utf-8"?>
<svg xmlns="http://www.w3.org/2000/svg" fill="none" height="4097" viewBox="0 0 4097 4097" width="4097">
<g clip-path="url(#clip0_1058_2178)">
<rect fill="#0B0B41" height="4096.02" transform="translate(0.00195312 0.699219)" width="4096"/>
<path d="M4870.73 1132.77C4870.73 1789.04 4338.72 2321.05 3682.45 2321.05C3026.18 2321.05 2494.17 1789.04 2494.17 1132.77C2494.17 476.5 3026.18 -55.5122 3682.45 -55.5122C4338.72 -55.5122 4870.73 476.5 4870.73 1132.77Z" stroke="#59ABA9" stroke-width="21.5928"/>
<path d="M2468.13 4096.72C2468.13 4368.86 2247.51 4589.48 1975.37 4589.48C1703.23 4589.48 1482.61 4368.86 1482.61 4096.72C1482.61 3824.58 1703.23 3603.96 1975.37 3603.96C2247.51 3603.96 2468.13 3824.58 2468.13 4096.72Z" stroke="#59ABA9" stroke-width="21.5928"/>
<path d="M3757.53 3149.78C3757.53 3509.2 3466.17 3800.57 3106.75 3800.57C2747.33 3800.57 2455.97 3509.2 2455.97 3149.78C2455.97 2790.37 2747.33 2499 3106.75 2499C3466.17 2499 3757.53 2790.37 3757.53 3149.78Z" stroke="#D7425E" stroke-width="21.5928"/>
<path d="M2108.13 1031.71C2108.13 1176.08 1991.09 1293.12 1846.72 1293.12C1702.34 1293.12 1585.3 1176.08 1585.3 1031.71C1585.3 887.335 1702.34 770.296 1846.72 770.296C1991.09 770.296 2108.13 887.335 2108.13 1031.71Z" stroke="#D7425E" stroke-width="21.5928"/>
<path d="M1500.94 1682.61C1500.94 2207.38 1075.53 2632.78 550.767 2632.78C26.0025 2632.78 -399.403 2207.38 -399.403 1682.61C-399.403 1157.85 26.0025 732.443 550.767 732.443C1075.53 732.443 1500.94 1157.85 1500.94 1682.61Z" stroke="#48A8E2" stroke-width="21.5928"/>
<path d="M4449.15 2469.27C4449.15 2923.26 4081.13 3291.28 3627.15 3291.28C3173.16 3291.28 2805.14 2923.26 2805.14 2469.27C2805.14 2015.29 3173.16 1647.27 3627.15 1647.27C4081.13 1647.27 4449.15 2015.29 4449.15 2469.27Z" stroke="#48A8E2" stroke-width="21.5928"/>
<path d="M2069.1 3108.65C2069.1 3588.21 1680.34 3976.97 1200.78 3976.97C721.218 3976.97 332.457 3588.21 332.457 3108.65C332.457 2629.09 721.218 2240.33 1200.78 2240.33C1680.34 2240.33 2069.1 2629.09 2069.1 3108.65Z" stroke="#F2B42D" stroke-width="21.5928"/>
<path d="M2338.49 893.237C2338.49 1323.23 1989.91 1671.82 1559.91 1671.82C1129.91 1671.82 781.33 1323.23 781.33 893.237C781.33 463.239 1129.91 114.658 1559.91 114.658C1989.91 114.658 2338.49 463.239 2338.49 893.237Z" stroke="#DD785E" stroke-width="21.5928"/>
<path d="M1693.58 3346.96C1693.58 3597.48 1490.49 3800.57 1239.97 3800.57C989.455 3800.57 786.369 3597.48 786.369 3346.96C786.369 3096.44 989.455 2893.36 1239.97 2893.36C1490.49 2893.36 1693.58 3096.44 1693.58 3346.96Z" stroke="#DD785E" stroke-width="21.5928"/>
</g>
<defs>
<clipPath id="clip0_1058_2178">
<rect fill="white" height="4096.02" transform="translate(0.00195312 0.699219)" width="4096"/>
</clipPath>
</defs>
</svg>